<?xml version="1.0" standalone="no"?>
<!DOCTYPE svg PUBLIC "-//W3C//DTD SVG 20010904//EN"
 "http://www.w3.org/TR/2001/REC-SVG-20010904/DTD/svg10.dtd">
<svg version="1.0" xmlns="http://www.w3.org/2000/svg"
 width="512.000000pt" height="439.000000pt" viewBox="0 0 512.000000 439.000000"
 preserveAspectRatio="xMidYMid meet">
<metadata>
Created by potrace 1.16, written by Peter Selinger 2001-2019
</metadata>
<g transform="translate(0.000000,439.000000) scale(0.100000,-0.100000)"
fill="#000000" stroke="none">
<path d="M4328 4175 c-41 -27 -68 -78 -68 -127 0 -31 -1 -30 -29 27 -15 33
-40 70 -53 83 l-25 23 -38 -47 c-22 -27 -34 -49 -28 -52 17 -11 53 -75 53 -94
0 -10 -8 -18 -17 -18 -10 0 -42 -11 -71 -25 l-53 -25 -52 42 c-52 41 -128 80
-179 92 -30 7 -29 7 -43 -76 -5 -32 -3 -38 12 -38 29 -1 97 -35 136 -69 35
-31 36 -34 21 -56 l-15 -23 -82 36 c-68 30 -96 36 -167 39 -47 2 -91 0 -98 -5
-10 -7 -11 -26 -2 -94 12 -100 38 -181 74 -235 14 -21 26 -41 26 -46 0 -17
-216 -294 -275 -352 -115 -115 -242 -154 -525 -162 -352 -10 -712 53 -1076
187 -75 28 -164 57 -198 64 -212 48 -428 16 -656 -96 -98 -48 -110 -52 -180
-52 -140 0 -221 45 -290 164 -47 81 -71 100 -123 100 -77 0 -111 -73 -111
-235 1 -123 21 -178 84 -224 68 -49 253 -99 333 -89 l32 3 -3 -132 c-3 -111 1
-154 22 -264 33 -162 127 -452 192 -584 66 -136 65 -148 -19 -273 -98 -146
-121 -211 -121 -342 -1 -91 3 -115 27 -180 38 -101 51 -169 82 -415 31 -249
39 -286 72 -317 22 -21 36 -23 134 -26 97 -3 303 18 317 33 16 15 -27 190 -96
400 -44 132 -86 270 -95 307 l-15 66 37 -5 c20 -4 38 -11 40 -17 2 -6 21 -28
41 -48 34 -35 42 -38 93 -38 l55 0 40 -93 c68 -158 112 -315 112 -404 l0 -33
190 0 190 0 -6 27 c-54 237 -134 476 -191 574 -14 23 -13 28 12 64 23 34 26
48 24 107 -2 63 0 72 31 115 19 25 44 71 56 102 13 31 29 55 36 54 7 -1 44
-11 82 -22 202 -59 578 -47 826 26 109 33 201 55 206 50 6 -6 -69 -265 -111
-387 -34 -98 -61 -155 -128 -271 -39 -67 -67 -187 -74 -321 l-6 -118 161 0
162 0 0 -86 c0 -98 7 -116 52 -135 42 -18 253 -18 436 0 l132 13 0 65 c0 70
-1 71 -88 140 -115 92 -130 272 -51 596 24 99 29 139 29 250 1 302 43 422 175
494 174 96 244 262 349 818 25 132 52 259 60 283 22 61 74 134 94 130 15 -3
17 -26 20 -201 l2 -197 55 0 55 0 0 165 0 164 23 -8 c21 -8 22 -15 25 -110 l3
-101 59 0 60 0 0 100 0 100 31 0 c91 0 285 69 341 122 67 64 58 166 -27 333
-51 100 -203 347 -257 416 -24 31 -28 46 -28 98 0 86 -30 160 -95 229 -29 31
-66 65 -82 74 -29 17 -31 16 -65 -7z m27 -329 c85 -40 163 -139 329 -414 l38
-62 -47 -52 c-54 -61 -102 -139 -138 -228 l-26 -65 -59 1 c-49 1 -68 7 -129
43 -122 72 -178 64 -251 -35 -59 -79 -77 -136 -128 -407 -102 -544 -157 -682
-306 -763 -158 -87 -204 -197 -217 -519 -6 -149 -14 -220 -29 -280 -36 -136
-52 -253 -52 -369 0 -162 30 -252 113 -339 l32 -34 -74 -7 c-41 -3 -119 -6
-174 -6 l-100 0 7 298 c8 332 21 565 39 692 19 134 14 274 -11 341 -38 97
-117 168 -210 190 -35 8 -35 8 -46 -72 -4 -34 -2 -37 25 -43 16 -3 45 -21 65
-39 l37 -34 -64 -6 c-35 -3 -113 -21 -174 -40 -312 -98 -742 -91 -912 14 l-35
22 41 41 c39 40 71 99 71 131 0 12 -13 15 -60 15 -42 0 -60 -4 -60 -13 0 -31
-85 -90 -247 -171 -283 -144 -506 -303 -552 -395 -49 -97 -33 -204 84 -562 47
-143 85 -266 85 -274 0 -20 -36 -27 -147 -29 l-96 -1 -8 29 c-5 16 -18 110
-29 210 -27 229 -51 352 -85 441 -20 52 -27 88 -27 140 -1 91 23 153 112 290
102 157 105 206 21 383 -64 136 -100 236 -145 398 -64 233 -80 397 -51 522 30
125 83 190 205 245 135 63 234 89 356 94 133 7 219 -9 367 -68 322 -128 720
-203 1082 -202 223 0 344 18 471 69 142 56 204 115 402 381 l84 113 75 -7 76
-6 -6 39 c-4 21 -7 49 -7 62 0 19 -5 22 -44 22 -28 0 -55 8 -77 23 -38 25 -84
103 -94 160 -6 32 -5 37 12 37 24 0 146 -58 217 -104 l55 -35 23 32 c38 50 41
57 27 74 -12 13 -6 23 44 69 65 61 120 82 212 83 43 1 74 -6 110 -23z m441
-631 c7 -19 14 -48 14 -64 0 -33 -28 -55 -118 -90 l-52 -21 31 63 c28 56 93
147 105 147 3 0 12 -16 20 -35z m-4455 -56 c19 -47 101 -124 163 -153 30 -14
86 -31 125 -38 39 -7 71 -15 71 -18 -1 -40 -126 -54 -226 -25 -145 41 -164 63
-164 191 0 79 10 93 31 43z m1429 -1660 c-15 -54 -42 -101 -94 -157 l-40 -43
17 -47 c21 -58 21 -66 1 -86 -23 -24 -33 -20 -77 26 l-39 41 -55 -17 c-38 -12
-57 -24 -60 -37 -11 -42 -49 -104 -65 -107 -20 -4 -48 44 -48 82 0 25 -1 25
-69 23 -38 -1 -72 1 -76 5 -32 31 184 188 455 331 121 64 126 66 143 48 16
-16 17 -23 7 -62z m1271 -537 c-6 -121 -11 -263 -11 -316 l0 -96 -106 0 -107
0 7 65 c8 81 40 184 66 218 30 37 104 199 131 284 12 40 25 71 27 68 2 -2 -1
-102 -7 -223z m-1463 84 c25 -13 42 -37 77 -105 41 -83 114 -283 130 -358 l7
-33 -61 0 c-58 0 -61 1 -67 28 -32 141 -62 231 -126 376 -27 61 -37 97 -33
114 5 22 8 23 23 9 9 -8 32 -22 50 -31z"/>
<path d="M4232 3683 c-18 -7 -42 -57 -42 -88 0 -34 50 -85 84 -85 64 0 98 34
98 97 0 51 -34 83 -86 82 -23 0 -47 -3 -54 -6z"/>
<path d="M1100 2937 c-25 -12 -72 -49 -106 -82 -67 -66 -98 -130 -106 -222
l-5 -53 57 0 57 0 5 43 c10 88 74 174 157 212 23 10 41 23 41 29 0 23 -33 96
-44 96 -6 0 -31 -10 -56 -23z"/>
<path d="M940 2506 l-46 -11 12 -58 c6 -32 14 -60 16 -63 7 -7 108 16 108 25
0 32 -25 121 -34 120 -6 -1 -31 -6 -56 -13z"/>
</g>
</svg>
