<?xml version="1.0" standalone="no"?>
<!DOCTYPE svg PUBLIC "-//W3C//DTD SVG 20010904//EN"
 "http://www.w3.org/TR/2001/REC-SVG-20010904/DTD/svg10.dtd">
<svg version="1.0" xmlns="http://www.w3.org/2000/svg"
 width="1920.000000pt" height="1164.000000pt" viewBox="0 0 1920.000000 1164.000000"
 preserveAspectRatio="xMidYMid meet">
<metadata>
Created by potrace 1.16, written by Peter Selinger 2001-2019
</metadata>
<g transform="translate(0.000000,1164.000000) scale(0.100000,-0.100000)"
fill="#000000" stroke="none">
<path d="M5537 11363 c-3 -5 -29 -99 -58 -210 -43 -163 -56 -203 -70 -203 -13
0 -34 42 -82 163 -62 155 -66 162 -94 165 l-30 3 -23 -133 c-12 -73 -30 -173
-39 -222 l-16 -89 -127 116 c-69 65 -129 117 -132 117 -3 0 -7 -92 -8 -204
l-3 -204 -90 54 c-49 29 -93 53 -96 54 -3 0 -9 -39 -13 -87 -6 -68 -17 -111
-52 -202 -109 -278 -112 -448 -10 -605 18 -28 47 -64 64 -80 l30 -28 -64 -82
c-87 -109 -118 -174 -122 -256 -7 -122 -20 -120 236 -28 168 61 226 78 232 69
4 -7 10 -61 14 -119 23 -363 57 -444 305 -721 l120 -133 -21 -52 c-79 -196
-156 -481 -188 -692 -31 -200 -38 -514 -16 -704 41 -350 133 -653 299 -985
201 -402 453 -738 871 -1164 444 -449 849 -769 1535 -1210 168 -108 304 -267
371 -435 17 -43 49 -147 71 -231 21 -85 51 -187 65 -227 63 -177 170 -336 285
-422 60 -46 191 -116 239 -129 l21 -5 -24 -39 c-269 -426 -306 -479 -498 -729
-230 -298 -410 -519 -432 -530 -12 -7 -146 -26 -297 -43 -151 -17 -358 -43
-460 -57 -102 -14 -244 -29 -316 -33 -105 -6 -140 -12 -178 -30 -40 -20 -96
-74 -96 -94 0 -7 142 -53 227 -73 55 -12 79 -12 205 2 137 15 561 37 719 37
88 1 150 -24 198 -78 l29 -34 154 29 c218 41 237 49 323 136 64 66 76 74 109
74 45 0 62 -8 143 -71 76 -58 152 -84 214 -75 45 7 120 43 125 61 2 8 -193
138 -434 290 -4 3 132 303 185 408 25 51 87 160 138 242 146 237 460 707 491
737 16 15 55 39 87 53 131 57 237 144 315 255 62 89 92 120 116 120 36 0 390
-101 491 -141 60 -23 150 -71 225 -119 210 -134 321 -172 500 -169 92 2 122
-1 148 -14 17 -10 32 -20 32 -23 0 -3 13 -91 30 -197 70 -462 150 -1052 150
-1118 0 -24 -10 -49 -29 -77 -34 -46 -25 -42 -391 -168 -135 -46 -312 -109
-395 -139 -82 -30 -193 -67 -245 -81 -113 -30 -172 -62 -205 -112 -22 -35 -44
-112 -31 -112 3 0 29 10 58 21 36 15 91 24 175 30 128 9 194 23 779 167 l321
78 -5 -68 c-2 -37 -3 -68 0 -68 2 0 80 34 172 75 220 98 251 120 301 222 57
114 110 127 260 63 101 -43 153 -50 210 -26 33 14 125 92 125 106 0 3 -55 17
-122 29 -208 38 -317 83 -433 177 -116 95 -176 218 -290 596 -133 441 -125
761 26 1061 42 83 85 126 212 210 604 405 955 947 1033 1599 8 73 17 147 20
163 2 17 51 105 108 197 142 228 169 279 201 382 26 81 33 93 91 150 80 79
103 129 104 221 0 86 -25 182 -84 314 l-43 99 91 33 c69 24 101 42 132 73 47
46 58 85 70 236 l6 86 37 19 c20 11 45 37 56 57 19 37 19 37 -1 107 l-21 71
81 78 c44 43 160 153 256 244 345 326 392 386 356 456 -13 25 -62 66 -104 87
-1 1 39 75 89 164 51 90 88 166 83 170 -5 4 -63 29 -129 55 -66 27 -121 49
-123 51 -2 2 35 50 82 107 47 56 102 133 121 169 34 66 35 69 35 188 0 121 0
122 39 204 51 105 65 163 59 240 -7 81 -36 138 -108 207 -48 45 -61 65 -75
115 -26 93 -82 190 -137 240 -92 83 -245 116 -439 96 -150 -16 -247 -43 -374
-106 -217 -107 -351 -237 -542 -529 -184 -280 -200 -303 -277 -395 -69 -82
-187 -188 -276 -248 -69 -47 -201 -110 -287 -138 -164 -54 -605 -132 -1013
-179 -289 -34 -429 -44 -800 -56 -381 -13 -523 -23 -768 -55 -371 -50 -588
-51 -826 -5 -393 76 -704 281 -935 615 -28 40 -97 158 -152 262 -200 372 -367
644 -572 933 -279 392 -538 595 -866 678 l-73 19 99 81 c164 133 173 142 173
194 0 36 -12 64 -63 154 -119 207 -172 294 -181 294 -5 0 -61 -27 -123 -61
-63 -33 -116 -59 -117 -57 -1 1 -25 66 -53 143 -28 76 -55 141 -59 142 -5 2
-17 -23 -28 -55 -60 -183 -109 -302 -125 -302 -12 0 -27 39 -65 168 -44 149
-63 192 -87 192 -4 0 -10 -3 -12 -7z"/>
</g>
</svg>
