<?xml version="1.0" standalone="no"?>
<!DOCTYPE svg PUBLIC "-//W3C//DTD SVG 20010904//EN"
 "http://www.w3.org/TR/2001/REC-SVG-20010904/DTD/svg10.dtd">
<svg version="1.0" xmlns="http://www.w3.org/2000/svg"
 width="512.000000pt" height="512.000000pt" viewBox="0 0 512.000000 512.000000"
 preserveAspectRatio="xMidYMid meet">
<metadata>
Created by potrace 1.16, written by Peter Selinger 2001-2019
</metadata>
<g transform="translate(0.000000,512.000000) scale(0.100000,-0.100000)"
fill="#000000" stroke="none">
<path d="M767 3790 c-135 -34 -240 -163 -253 -312 -22 -233 171 -428 423 -428
68 0 74 -2 67 -17 -50 -116 -58 -302 -18 -421 32 -95 99 -198 169 -259 77 -66
101 -134 73 -209 -10 -29 -8 -42 19 -111 71 -180 87 -242 89 -353 1 -58 2
-111 3 -118 2 -20 90 -71 160 -92 85 -27 199 -27 232 -1 13 10 40 22 59 25 49
10 90 26 123 48 35 25 35 52 -3 213 l-31 127 38 115 c34 102 40 113 58 108
153 -45 171 -48 320 -47 83 0 255 9 384 21 129 11 236 19 238 17 7 -6 23 -128
23 -169 0 -27 -12 -58 -40 -104 -53 -88 -52 -112 4 -159 36 -30 45 -45 51 -80
8 -53 34 -88 88 -117 36 -19 59 -22 162 -24 69 -1 152 -8 195 -18 137 -31 297
-1 320 59 12 32 7 46 -42 118 -104 153 -141 358 -102 568 8 48 18 91 22 97 4
5 39 20 77 33 39 12 126 50 195 83 l125 61 126 -3 126 -3 131 52 c112 44 137
58 167 93 37 43 65 118 65 172 0 17 -10 51 -22 75 -19 37 -38 53 -113 98 -118
70 -132 84 -140 140 -4 26 -17 67 -31 91 -13 24 -24 50 -24 58 0 8 20 76 45
152 25 76 45 151 45 167 0 44 -45 127 -91 168 -40 37 -74 45 -108 26 -10 -5
-60 -73 -111 -151 l-93 -142 -95 102 c-53 57 -107 107 -121 112 -45 18 -76 -5
-118 -87 -21 -40 -44 -76 -51 -79 -48 -18 -229 -29 -467 -28 -262 0 -279 2
-550 41 -384 57 -480 66 -705 65 -226 0 -313 -14 -430 -69 -90 -42 -150 -87
-248 -184 -84 -82 -139 -111 -226 -117 -113 -9 -243 65 -281 159 -50 123 16
271 132 296 76 17 143 -15 177 -82 16 -32 17 -44 7 -76 -13 -43 -52 -80 -85
-80 -11 0 -34 9 -51 20 -57 38 -117 21 -131 -37 -9 -33 20 -72 77 -101 37 -19
56 -23 116 -20 61 3 78 8 115 33 62 45 99 110 105 188 10 123 -48 222 -160
275 -55 26 -153 36 -210 22z m3205 -490 c65 -11 77 -17 115 -55 22 -24 44 -57
48 -73 3 -17 13 -36 21 -43 25 -21 44 -66 44 -104 0 -49 21 -86 77 -134 27
-22 42 -41 35 -41 -7 0 -26 -21 -42 -47 -27 -43 -30 -55 -30 -135 l0 -87 -32
-6 c-48 -9 -307 23 -348 43 -42 20 -75 68 -95 135 -19 64 -31 77 -68 77 -39 0
-67 -25 -67 -60 0 -74 70 -205 130 -245 16 -11 30 -23 30 -27 0 -7 -114 -52
-222 -87 -36 -12 -71 -28 -78 -35 -6 -8 -22 -58 -37 -112 -22 -85 -26 -120
-26 -249 -1 -190 22 -284 111 -457 4 -9 -70 -8 -113 1 -28 6 -30 10 -47 96
-19 96 -39 125 -84 125 -26 0 -30 14 -14 55 14 38 -61 380 -90 409 -22 22 -5
23 -430 -19 -304 -30 -513 -39 -591 -26 -140 23 -272 95 -343 188 -44 57 -74
72 -110 55 -22 -10 -75 -135 -147 -347 -31 -92 -29 -195 9 -372 32 -150 34
-146 -51 -117 l-47 16 0 54 c0 75 -24 185 -67 307 -31 87 -36 116 -37 197 -2
128 -28 184 -129 283 -183 178 -202 389 -56 634 52 87 182 212 265 255 117 62
179 72 414 72 225 0 292 -6 701 -64 269 -39 282 -40 555 -40 153 1 310 5 349
10 38 5 70 8 71 7 1 -1 -2 -27 -7 -57 -12 -73 4 -154 39 -205 29 -43 109 -89
173 -99 46 -8 89 22 89 63 0 36 -24 57 -80 70 -94 21 -116 107 -64 253 45 124
35 122 125 31 78 -79 79 -80 151 -93z m-2167 -1080 l29 -30 -49 -150 -49 -149
27 -118 c15 -65 27 -124 27 -130 0 -8 -13 -13 -30 -13 -16 0 -30 2 -30 4 0 3
-7 38 -16 78 -36 172 -44 253 -29 309 19 70 78 229 85 229 4 0 19 -14 35 -30z
m1295 -105 c0 -3 12 -58 26 -122 l26 -116 -22 -77 c-18 -62 -20 -82 -10 -99
13 -25 48 -41 90 -41 25 0 31 -5 39 -37 6 -20 8 -39 6 -42 -10 -9 -121 -4
-142 7 -15 9 -24 25 -29 58 -4 29 -17 58 -34 78 l-28 32 25 39 c39 64 41 75
27 190 -17 142 -17 135 6 135 11 0 20 -2 20 -5z"/>
<path d="M4026 3049 c-52 -41 -25 -119 42 -119 66 0 94 69 47 115 -30 30 -54
31 -89 4z"/>
</g>
</svg>
