<?xml version="1.0" standalone="no"?>
<!DOCTYPE svg PUBLIC "-//W3C//DTD SVG 20010904//EN"
 "http://www.w3.org/TR/2001/REC-SVG-20010904/DTD/svg10.dtd">
<svg version="1.0" xmlns="http://www.w3.org/2000/svg"
 width="200.000000pt" height="200.000000pt" viewBox="0 0 200.000000 200.000000"
 preserveAspectRatio="xMidYMid meet">
<metadata>
Created by potrace 1.10, written by Peter Selinger 2001-2011
</metadata>
<g transform="translate(0.000000,200.000000) scale(0.100000,-0.100000)"
fill="#000000" stroke="none">
<path d="M1615 1598 c-43 -25 -58 -75 -34 -120 16 -29 4 -33 -33 -10 -35 21
-118 38 -118 24 0 -5 15 -19 32 -32 l33 -24 -35 -10 c-19 -5 -316 -12 -660
-15 -677 -6 -650 -4 -684 -62 -14 -23 -16 -65 -16 -282 l0 -256 28 3 27 3 3
254 c2 225 4 255 19 267 33 24 38 14 35 -70 -2 -45 4 -134 13 -197 15 -104 15
-125 2 -201 -12 -73 -13 -109 -1 -255 7 -93 13 -182 13 -197 1 -25 5 -28 36
-28 l35 0 0 171 0 171 31 40 32 39 -22 15 c-12 9 -21 26 -21 40 0 53 46 129
95 157 13 8 109 14 277 17 256 5 256 5 283 30 14 13 35 40 47 58 19 30 19 34
4 51 -9 10 -16 20 -16 22 0 5 157 0 186 -6 24 -5 135 -100 148 -126 16 -33
-19 -59 -78 -59 l-52 0 -23 -114 c-13 -63 -29 -125 -36 -138 -9 -18 -9 -28 2
-50 10 -22 42 -249 43 -305 0 -8 14 -13 35 -13 l35 0 0 214 0 214 28 7 c64 15
99 52 183 190 77 127 85 136 109 131 14 -4 66 -11 115 -16 50 -5 99 -12 110
-15 28 -8 75 29 75 60 0 13 -39 82 -87 155 -68 101 -94 132 -115 136 -19 5
-29 14 -33 36 -9 38 4 51 75 77 33 12 60 24 60 27 0 9 -166 3 -185 -8z m57
-160 c48 -39 181 -232 176 -256 -3 -14 -15 -17 -78 -15 -41 2 -100 8 -132 14
-75 15 -83 9 -183 -148 -69 -109 -87 -132 -127 -153 -84 -45 -87 -51 -90 -154
l-3 -91 -17 47 c-13 36 -14 56 -7 80 5 18 17 67 25 108 18 88 26 100 66 100
41 0 88 48 88 90 0 25 -11 43 -56 86 -81 80 -115 94 -223 94 -81 0 -91 -2
-105 -22 -9 -12 -13 -32 -10 -44 4 -15 -3 -32 -24 -55 l-30 -34 -254 -5 c-251
-5 -255 -5 -292 -30 -45 -30 -93 -100 -102 -148 -4 -20 -2 -50 5 -69 11 -30
10 -37 -11 -71 l-23 -37 -4 30 c-2 17 2 71 8 120 10 75 10 107 -3 192 -9 57
-16 146 -16 198 l0 95 533 0 c575 1 666 7 712 50 18 17 30 20 58 15 30 -6 37
-3 53 19 11 14 20 26 22 26 2 0 21 -15 44 -32z"/>
<path d="M854 917 c-12 -12 -29 -47 -39 -77 -21 -67 -32 -79 -79 -90 -36 -8
-37 -7 -94 60 -31 38 -61 69 -65 69 -15 2 -47 -84 -47 -127 0 -47 19 -99 50
-139 11 -14 20 -34 20 -44 0 -11 22 -35 49 -56 49 -37 73 -85 56 -112 -4 -7
10 -11 40 -11 28 0 44 4 40 10 -3 5 -15 10 -26 10 -17 0 -39 33 -39 58 0 4 34
25 76 46 121 62 169 147 145 256 -18 80 -18 83 5 95 21 11 21 11 -6 43 -31 37
-56 40 -86 9z m37 -55 c-6 -12 -5 -38 4 -77 26 -109 -9 -179 -119 -236 l-65
-34 -28 21 c-65 49 -132 212 -104 254 9 12 19 7 60 -34 48 -47 51 -49 96 -44
57 7 88 34 111 97 10 25 22 52 27 59 15 19 29 15 18 -6z"/>
</g>
</svg>
